#!OML:ASF F:\VICON\USERDATA\INSTALL\rory3\rory3.ASF
:FULLY-SPECIFIED
:DEGREES
329
root 0.904568 17.8044 43.916 -4.5311 -2.86264 1.51965
lowerback 10.7179 0.0753438 -1.74184
upperback 0.553032 -0.0794436 0.579346
thorax -5.43372 0.0105472 1.60035
lowerneck -16.2881 -2.72814 -3.1952
upperneck 21.7911 -3.53108 2.30366
head 9.69094 -1.64534 0.871705
rclavicle -1.35236e-014 -1.19271e-014
rhumerus -31.2123 -16.9578 -80.9326
rradius 27.7541
rwrist 4.96908
rhand -16.4834 23.7048
rfingers 7.12502
rthumb 9.73377 -6.05023
lclavicle -1.35236e-014 -1.19271e-014
lhumerus -26.8654 0.79865 80.7607
lradius 23.5791
lwrist 8.29071
lhand -28.4143 20.9336
lfingers 7.12502
lthumb -1.78608 50.9058
rfemur -24.6721 -1.55607 20.5277
rtibia 68.4603
rfoot -8.03631 -8.35953
rtoes 9.36914
lfemur -3.21614 0.475991 -25.7462
ltibia 28.0205
lfoot -15.3223 -1.91066
ltoes 4.16184
330
root 0.909335 17.8018 44.119 -4.60782 -2.57598 1.99693
lowerback 11.0705 -0.0272223 -2.21561
upperback 0.00357536 -0.291908 0.478349
thorax -6.20136 -0.0682051 1.79995
lowerneck -15.2708 -2.8478 -3.58176
upperneck 21.9768 -3.70497 2.57492
head 9.58501 -1.73756 1.01902
rclavicle 3.21472e-016 5.56597e-015
rhumerus -32.5015 -16.9356 -80.4535
rradius 27.4785
rwrist 4.94647
rhand -16.2986 23.1696
rfingers 7.12502
rthumb 9.91204 -6.57701
lclavicle 3.21472e-016 5.56597e-015
lhumerus -27.801 -0.0961126 80.997
lradius 24.2474
lwrist 8.76752
lhand -29.7532 18.7843
lfingers 7.12502
lthumb -3.07912 48.7418
rfemur -25.1292 -1.99904 19.9422
rtibia 67.014
rfoot -9.1292 -8.04834
rtoes 8.16922
lfemur -2.16599 0.555637 -26.332
ltibia 27.6747
lfoot -15.9619 -2.13497
ltoes 5.77987
331
root 0.903981 17.7958 44.2925 -4.47545 -2.42671 2.32811
lowerback 9.98236 -0.122393 -2.67626
upperback 0.816537 -0.441136 0.40857
thorax -4.72556 -0.160327 1.99497
lowerneck -15.8411 -2.48961 -3.09729
upperneck 21.2355 -3.22457 2.30701
head 9.4011 -1.49953 0.901686
rclavicle 1.50704e-014 1.11319e-014
rhumerus -31.2933 -17.1595 -80.94
rradius 27.4803
rwrist 4.69997
rhand -15.895 21.9357
rfingers 7.12502
rthumb 10.3014 -7.79203
lclavicle 1.50704e-014 1.11319e-014
lhumerus -26.0561 0.53545 80.6328
lradius 24.5183
lwrist 6.63059
lhand -30.5051 15.6615
lfingers 7.12502
lthumb -3.80523 45.6072
rfemur -26.0111 -2.09303 19.6417
rtibia 65.4596
rfoot -9.85613 -7.99058
rtoes 7.95151
lfemur -1.59755 0.622528 -26.7089
ltibia 27.4046
lfoot -16.3116 -2.23696
ltoes 7.37693
332
root 0.899097 17.7838 44.4422 -4.24745 -2.358 2.45228
lowerback 10.4687 -0.218303 -3.00198
upperback 0.553317 -0.621777 0.456421
thorax -5.26033 -0.229841 2.26187
lowerneck -16.8637 -2.95903 -3.60783
upperneck 22.3726 -3.78195 2.47723
head 10.0265 -1.77009 0.959965
rclavicle -7.60351e-015 -5.1684e-015
rhumerus -31.5234 -17.1956 -80.7588
rradius 26.943
rwrist 5.17737
rhand -16.0857 22.5559
rfingers 7.12502
rthumb 10.1174 -7.18083
lclavicle -7.60351e-015 -5.1684e-015
lhumerus -25.8187 1.01813 80.2343
lradius 25.0048
lwrist 6.10369
lhand -28.3874 18.8111
lfingers 7.12502
lthumb -1.76006 48.7836
rfemur -27.0529 -1.93437 19.6443
rtibia 63.7288
rfoot -10.3517 -8.27838
rtoes 7.67539
lfemur -1.22113 0.565948 -26.8747
ltibia 27.1171
lfoot -16.388 -2.11231
ltoes 7.71585
333
root 0.911139 17.769 44.5972 -4.15912 -1.9918 3.01621
lowerback 10.8698 -0.350966 -3.43786
upperback 0.387779 -0.876036 0.310716
thorax -5.64036 -0.336443 2.40058
lowerneck -16.5278 -2.74213 -3.52865
upperneck 21.779 -3.51108 2.53854
head 9.74224 -1.63513 1.00892
rclavicle -1.10325e-014 -7.15625e-015
rhumerus -31.9504 -17.306 -80.5044
rradius 26.9394
rwrist 5.57456
rhand -16.234 23.2915
rfingers 7.12502
rthumb 9.97436 -6.45221
lclavicle -1.10325e-014 -7.15625e-015
lhumerus -25.4704 0.542904 80.2402
lradius 25.5323
lwrist 7.01511
lhand -28.344 19.6651
lfingers 7.12502
lthumb -1.71819 49.638
rfemur -27.734 -2.41128 18.9954
rtibia 61.8548
rfoot -11.0878 -8.36061
rtoes 5.88813
lfemur -0.529982 0.455299 -27.6412
ltibia 26.6369
lfoot -16.5843 -1.64406
ltoes 5.00162
334
root 0.884775 17.7658 44.7738 -4.14306 -2.40194 2.37614
lowerback 11.1841 -0.243304 -3.18554
upperback 0.201791 -0.698809 0.582818
thorax -6.02464 -0.242494 2.52327
lowerneck -15.8019 -2.48871 -3.15878
upperneck 21.2397 -3.17879 2.17737
head 9.39287 -1.49861 0.873376
rclavicle -8.58501e-015 -1.07344e-014
rhumerus -32.661 -17.3892 -80.3136
rradius 27.174
rwrist 5.62072
rhand -16.2719 22.9089
rfingers 7.12502
rthumb 9.93786 -6.83653
lclavicle -8.58501e-015 -1.07344e-014
lhumerus -25.4186 -0.161708 80.2809
lradius 26.1574
lwrist 7.63451
lhand -28.583 19.7155
lfingers 7.12502
lthumb -1.94899 49.6863
rfemur -28.1787 -1.66008 20.0122
rtibia 59.5779
rfoot -11.584 -9.19066
rtoes 3.99627
lfemur 0.104121 0.852535 -26.8975
ltibia 26.3729
lfoot -17.0572 -0.797697
ltoes 1.14624
335
root 0.88752 17.7746 44.9969 -4.34929 -2.07692 2.3905
lowerback 9.86248 -0.442855 -3.11278
upperback 1.12217 -0.899612 0.569559
thorax -4.3049 -0.388338 2.46693
lowerneck -16.4151 -2.71502 -3.44954
upperneck 20.5892 -3.45249 2.48054
head 9.29924 -1.61035 0.984486
rclavicle 1.56543e-015 1.98785e-015
rhumerus -31.6791 -17.7393 -80.5874
rradius 27.0225
rwrist 5.73978
rhand -16.2481 22.2852
rfingers 7.12502
rthumb 9.96084 -7.45917
lclavicle 1.56543e-015 1.98785e-015
lhumerus -23.9715 -0.430878 80.2406
lradius 26.5937
lwrist 8.20576
lhand -29.0224 18.649
lfingers 7.12502
lthumb -2.37334 48.6156
rfemur -27.8751 -2.08398 19.9138
rtibia 57.1126
rfoot -12.1877 -9.41284
rtoes 3.83789
lfemur 1.45008 0.794066 -27.0173
ltibia 25.8649
lfoot -17.5012 -0.593785
ltoes 0.963416
336
root 0.879312 17.7818 45.1281 -3.95079 -1.9889 1.88234
lowerback 10.9596 -0.562847 -2.76687
upperback 0.305919 -1.05033 0.776157
thorax -5.76814 -0.430465 2.54026
lowerneck -16.0624 -2.84894 -3.72864
upperneck 20.9143 -3.62719 2.64487
head 9.36218 -1.69917 1.06842
rclavicle 2.06239e-014 6.75868e-015
rhumerus -33.0064 -17.3915 -80.2079
rradius 27.1353
rwrist 5.85021
rhand -16.4446 22.2508
rfingers 7.12502
rthumb 9.77118 -7.50255
lclavicle 2.06239e-014 6.75868e-015
lhumerus -24.7573 -1.02302 80.2566
lradius 27.3649
lwrist 9.11433
lhand -29.503 17.1947
lfingers 7.12502
lthumb -2.83747 47.1556
rfemur -28.6428 -1.76495 20.6091
rtibia 54.4534
rfoot -11.6807 -10.2814
rtoes 3.02437
lfemur 1.73121 0.361519 -26.4751
ltibia 25.2562
lfoot -17.083 -0.874047
ltoes 4.14147
337
root 0.881057 17.7811 45.2783 -3.58626 -1.68866 2.06296
lowerback 10.761 -0.678219 -2.94104
upperback 0.318894 -1.22096 0.75222
thorax -5.62908 -0.512848 2.63513
lowerneck -16.0229 -2.69647 -3.54391
upperneck 20.5882 -3.42259 2.50561
head 9.22792 -1.60512 1.01672
rclavicle 2.56929e-014 -8.34896e-015
rhumerus -33.0088 -17.8416 -79.9982
rradius 26.9334
rwrist 6.11552
rhand -16.5601 22.9659
rfingers 7.12502
rthumb 9.65978 -6.79257
lclavicle 2.56929e-014 -8.34896e-015
lhumerus -24.1201 -1.35323 80.279
lradius 27.8448
lwrist 9.64381
lhand -29.8311 17.1562
lfingers 7.12502
lthumb -3.15433 47.1126
rfemur -29.2687 -1.92208 20.4216
rtibia 51.7854
rfoot -11.3711 -10.8158
rtoes 2.04908
lfemur 2.37442 0.0920921 -26.708
ltibia 24.2276
lfoot -16.6813 -1.22342
ltoes 6.63814
